<svg width="32" height="23" viewBox="0 0 32 23" fill="none" xmlns="http://www.w3.org/2000/svg">
<path d="M31.3299 4.24163C31.1488 3.58099 30.7959 2.98289 30.3087 2.51089C29.8079 2.02438 29.194 1.67637 28.525 1.4997C26.0213 0.825117 15.9907 0.825117 15.9907 0.825117C11.809 0.776483 7.62837 0.990389 3.47236 1.46563C2.80337 1.65535 2.19061 2.01114 1.6886 2.50135C1.19533 2.9865 0.838044 3.58477 0.651402 4.24027C0.203053 6.7093 -0.0147857 9.21629 0.0008228 11.7274C-0.015175 14.2363 0.202129 16.7425 0.651402 19.2146C0.834044 19.8674 1.19 20.4629 1.6846 20.944C2.1792 21.4251 2.79511 21.7726 3.47236 21.9565C6.00935 22.6298 15.9907 22.6298 15.9907 22.6298C20.1777 22.6785 24.3636 22.4646 28.525 21.9893C29.194 21.8126 29.8079 21.4646 30.3087 20.9781C30.802 20.497 31.1526 19.8987 31.3286 19.2473C31.7887 16.7792 32.0124 14.2712 31.9965 11.7588C32.0311 9.23572 31.8077 6.71587 31.3299 4.24027V4.24163ZM12.8018 16.3936V7.06261L21.1473 11.7288L12.8018 16.3936Z" fill="#DB9F6A"/>
</svg>
